<?xml version="1.0" encoding="UTF-8" standalone="no"?>
<svg
   width="54.981148mm"
   height="20.965031mm"
   viewBox="0 0 54.981147 20.965031"
   version="1.1"
   id="svg8"
   inkscape:version="1.1.2 (0a00cf5339, 2022-02-04)"
   sodipodi:docname="Logo_Solidaires_Informatique_tourblanc_sansuniion.svg"
   xmlns:inkscape="http://www.inkscape.org/namespaces/inkscape"
   xmlns:sodipodi="http://sodipodi.sourceforge.net/DTD/sodipodi-0.dtd"
   xmlns="http://www.w3.org/2000/svg"
   xmlns:svg="http://www.w3.org/2000/svg"
   xmlns:rdf="http://www.w3.org/1999/02/22-rdf-syntax-ns#"
   xmlns:cc="http://creativecommons.org/ns#"
   xmlns:dc="http://purl.org/dc/elements/1.1/">
  <defs
     id="defs2">
    <inkscape:path-effect
       effect="offset"
       id="path-effect1119"
       is_visible="true"
       lpeversion="1"
       linejoin_type="miter"
       unit="mm"
       offset="1.2"
       miter_limit="4"
       attempt_force_join="true"
       update_on_knot_move="true" />
    <inkscape:path-effect
       update_on_knot_move="true"
       attempt_force_join="true"
       miter_limit="4"
       offset="0.8"
       unit="mm"
       linejoin_type="miter"
       lpeversion="1"
       is_visible="true"
       id="path-effect1096"
       effect="offset" />
    <inkscape:path-effect
       update_on_knot_move="true"
       attempt_force_join="true"
       miter_limit="4"
       offset="1.2"
       unit="mm"
       linejoin_type="miter"
       lpeversion="1"
       is_visible="true"
       id="path-effect1029"
       effect="offset" />
    <inkscape:path-effect
       update_on_knot_move="true"
       attempt_force_join="true"
       miter_limit="4"
       offset="1.2"
       unit="mm"
       linejoin_type="miter"
       lpeversion="1"
       is_visible="true"
       id="path-effect988"
       effect="offset" />
    <inkscape:path-effect
       effect="offset"
       id="path-effect946"
       is_visible="true"
       lpeversion="1"
       linejoin_type="miter"
       unit="mm"
       offset="0.5"
       miter_limit="4"
       attempt_force_join="true"
       update_on_knot_move="true" />
    <rect
       x="-104.79479"
       y="-1150.5153"
       width="4133.2778"
       height="3055.7275"
       id="rect857" />
  </defs>
  <sodipodi:namedview
     showguides="false"
     id="base"
     pagecolor="#ffffff"
     bordercolor="#666666"
     borderopacity="1.0"
     inkscape:pageopacity="0.0"
     inkscape:pageshadow="2"
     inkscape:zoom="2.8284271"
     inkscape:cx="77.958523"
     inkscape:cy="21.92031"
     inkscape:document-units="mm"
     inkscape:current-layer="g28"
     inkscape:document-rotation="0"
     showgrid="false"
     fit-margin-top="0"
     fit-margin-left="0"
     fit-margin-right="0"
     fit-margin-bottom="0"
     inkscape:window-width="1920"
     inkscape:window-height="1043"
     inkscape:window-x="0"
     inkscape:window-y="0"
     inkscape:window-maximized="1"
     inkscape:pagecheckerboard="0">
    <sodipodi:guide
       position="-8.7983489,33.102617"
       orientation="0,287.24409"
       id="guide835" />
    <sodipodi:guide
       position="67.201652,33.102617"
       orientation="287.24409,0"
       id="guide837" />
    <sodipodi:guide
       position="67.201652,-42.897384"
       orientation="0,-287.24409"
       id="guide839" />
    <sodipodi:guide
       position="-8.7983489,-42.897384"
       orientation="-287.24409,0"
       id="guide841" />
  </sodipodi:namedview>
  <metadata
     id="metadata5">
    <rdf:RDF>
      <cc:Work
         rdf:about="">
        <dc:format>image/svg+xml</dc:format>
        <dc:type
           rdf:resource="http://purl.org/dc/dcmitype/StillImage" />
        <dc:title />
      </cc:Work>
    </rdf:RDF>
  </metadata>
  <g
     inkscape:label="Calque 1"
     inkscape:groupmode="layer"
     id="layer1"
     transform="translate(-21.891681,-53.990349)">
    <g
       id="g28"
       transform="matrix(0.02295832,0,0,0.02295832,98.272343,53.157498)">
      <path
         id="path516"
         style="font-weight:bold;font-size:900.456px;line-height:1.25;font-family:'Rockwell Condensed';-inkscape-font-specification:'Rockwell Condensed, Bold';letter-spacing:-66.4964px;word-spacing:0px;fill:#ffffff;stroke-width:1.53565"
         d="m -2479.6953,36.277344 c -29.7557,0 -60.5479,12.788207 -81.5703,33.810547 -2.2772,2.277232 -4.412,4.71611 -6.4903,7.208984 -9.2098,-7.594308 -20.7414,-11.807622 -32.6777,-11.939453 h -142.0742 c -28.8641,0.0033 -52.2623,23.401481 -52.2656,52.265628 v 74.32422 c 0.2342,14.3338 6.345,27.94236 16.9023,37.64062 -27.237,-15.40913 -58.1357,-23.88672 -90.0117,-23.88672 -35.5647,0 -69.9317,10.23254 -99.3984,28.79297 V 117.62305 c -0,-28.864186 -23.4015,-52.262404 -52.2657,-52.265628 h -74.3242 c -7.785,0.217705 -15.4229,2.172227 -22.3555,5.720703 -17.8102,-6.902912 -36.668,-9.861328 -55.7734,-9.861328 -42.7709,0 -85.0104,19.179429 -113.0293,51.478513 -28.2323,32.32826 -41.875,75.24083 -41.875,119.67774 0,31.40097 7.6766,62.64494 21.4785,92.26172 12.233,26.2498 31.1095,50.29003 56.6426,76.35156 h -21.377 c -28.8641,0.003 -52.2623,23.40148 -52.2656,52.26562 v 161.4336 c 0,28.86414 23.4015,52.26234 52.2656,52.26562 h 74.3243 c 8.1918,-0.2234 16.2162,-2.36969 23.4257,-6.26562 16.8988,6.59182 34.7441,10.40625 52.9688,10.40625 43.9521,0 86.6526,-19.90556 116.1191,-52.66992 35.3186,37.03067 84.1074,58.54492 135.4395,58.54492 32.0848,0 63.1752,-8.55826 90.5547,-24.09766 9.4612,8.84597 21.8697,13.86422 34.8203,14.08203 h 155.4219 v 37.3086 c -23.0852,5.79307 -39.3422,26.44991 -39.5469,50.25 v 77.99414 c 0,28.86414 23.4015,52.26234 52.2656,52.26562 h 182.8164 c 4.1499,-0.15839 8.2662,-0.81078 12.2617,-1.94336 5.3253,1.80003 10.9061,2.72928 16.5274,2.75195 h 64.8476 c 2.157,-0.20527 4.2992,-0.54447 6.4141,-1.01562 2.1155,0.47123 4.2583,0.81042 6.416,1.01562 h 52.3106 c 3.4594,-0.20019 6.8904,-0.74387 10.2422,-1.62304 3.3512,0.87904 6.7814,1.42272 10.2402,1.62304 h 64.1953 c 9.7797,-0.15541 19.3197,-3.05162 27.5352,-8.35937 14.7582,7.64336 31.2049,12.16406 47.2167,12.16406 16.1008,0 32.6262,-4.63055 47.4102,-12.4082 8.3271,5.48062 18.0477,8.46581 28.0156,8.60351 h 68.6524 c 6.673,-0.1521 13.2551,-1.58083 19.3906,-4.20898 6.1355,2.62815 12.7176,4.05688 19.3906,4.20898 h 63.2949 c 2.2451,-0.20791 4.4744,-0.56086 6.6739,-1.05664 2.1995,0.49578 4.4287,0.84873 6.6738,1.05664 h 50.082 c 2.2451,-0.20791 4.4744,-0.56086 6.6739,-1.05664 2.2001,0.49586 4.43,0.84881 6.6757,1.05664 h 53.0743 c 7.9589,-0.22093 15.7622,-2.2571 22.8144,-5.95312 10.9692,4.87422 22.8158,7.77734 34.1563,7.77734 6.9219,0 13.8795,-1.06663 20.6855,-2.83593 2.1079,0.46896 4.2429,0.80684 6.3926,1.01171 h 51.3887 c 7.5235,-0.20853 14.9133,-2.03932 21.664,-5.36718 12.6718,6.14784 26.4791,9.17187 38.4551,9.17187 12.017,0 23.7564,-2.02228 34.9375,-5.36523 3.2279,0.83327 6.5281,1.35583 9.8555,1.56054 h 65.9297 c 4.2442,-0.15035 8.4543,-0.81738 12.5371,-1.98632 v 9.75195 c 0,28.86415 23.4015,52.26235 52.2656,52.26563 h 69.8437 c 28.8642,-0.003 52.2624,-23.40144 52.2657,-52.26563 V 887.125 c 2.9544,0.36046 5.8829,0.54688 8.7558,0.54688 7.888,0 15.4444,-1.21735 22.668,-3.18555 2.2687,0.5168 4.5694,0.88154 6.8867,1.09179 h 53.4805 c 8.3708,-0.22275 16.5656,-2.45331 23.8945,-6.5039 13.981,6.66591 29.2872,10.30859 43.541,10.30859 19.9816,0 41.204,-5.95235 58.28128,-17.63672 17.42779,-11.92419 30.54424,-29.89889 37.72266,-48.625 3.82166,-10.07385 4.43697,-21.08255 1.76172,-31.51953 2.23252,-5.76066 3.42612,-11.87149 3.52539,-18.04883 v -12.28906 c 0,-28.10907 -6.14304,-57.0751 -25.6543,-80.375 -8.57158,-10.23597 -20.05006,-18.74654 -32.72075,-24.81055 13.47223,-7.33377 25.69447,-16.85253 35.48638,-28.48046 23.91233,-28.39599 34.4121,-65.60022 34.4121,-103.48828 0,-28.02357 -5.66521,-55.47483 -18.67187,-79.68165 -7.21119,-13.4208 -15.89038,-25.75196 -25.83203,-36.84765 21.57151,-6.97043 36.19117,-27.05096 36.19922,-49.7207 v -90.21485 c -0.003,-28.86416 -23.40147,-52.26236 -52.26563,-52.26562 h -74.32417 c -5.1662,0.0472 -10.2969,0.8601 -15.2247,2.41211 -13.0241,-5.0792 -26.8384,-7.94922 -40.7558,-7.94922 -31.328,0 -63.1186,12.31737 -86.6426,33.30664 -30.0332,-23.89555 -67.7047,-37.44727 -106.5039,-37.44727 -30.9959,0 -61.232,7.43798 -87.6055,21.53125 -9.7279,-10.86099 -23.5501,-17.16528 -38.1289,-17.39062 -18.9777,0 -37.7157,2.58123 -55.9023,11.00781 -6.8039,-3.39194 -14.2658,-5.2589 -21.8653,-5.4707 h -105.4765 c 6.3103,-14.34947 9.8808,-29.92861 9.8808,-45.22071 0,-29.10835 -12.8317,-59.2873 -33.4746,-79.638669 -20.3154,-20.217825 -50.147,-32.769531 -78.9336,-32.769531 -28.9248,0 -59.0209,12.476258 -79.4765,32.931641 v 0.002 c -20.4533,20.453609 -32.9316,50.549489 -32.9316,79.474609 0,15.9455 3.9043,32.19105 10.7344,47.03711 -9.8754,2.31139 -18.865,7.4458 -25.8731,14.77735 -30.5068,-18.35278 -67.0108,-26.27149 -105.6875,-26.27149 -42.3102,0 -82.178,10.63628 -115.6504,30.49805 V 117.62305 c -0,-28.864147 -23.4015,-52.262349 -52.2656,-52.265628 h -136.5391 c -28.8641,0.0033 -52.2623,23.401481 -52.2656,52.265628 v 74.32422 c 0.1338,6.48202 1.4724,12.88258 3.9473,18.875 -22.8801,2.87146 -44.7055,12.19824 -63.5254,26.00585 -2.2603,-6.12743 -5.6488,-11.77702 -9.9902,-16.65624 14.3618,-19.72927 22.8398,-44.41783 22.8398,-68.51563 0,-29.90341 -13.1131,-60.79761 -34.3516,-81.732422 -20.8989,-20.801959 -51.4212,-33.646483 -81.0273,-33.646484 z m -634.3516,35.517578 0.8672,0.351562 c -0.1006,-0.04192 -0.206,-0.06577 -0.3066,-0.107422 -0.1916,-0.07688 -0.3682,-0.168006 -0.5606,-0.24414 z m 353.5684,168.931638 c 1.4528,0.51152 2.9276,0.95857 4.4199,1.33985 v 2.0332 c -1.471,-1.12765 -2.9189,-2.29083 -4.4199,-3.37305 z m 37.7012,35.98828 0.2402,0.30274 c -0.033,-0.0414 -0.069,-0.0797 -0.1016,-0.1211 -0.048,-0.0595 -0.091,-0.12216 -0.1386,-0.18164 z m -291.7637,0.16797 c -0.024,0.0306 -0.046,0.0631 -0.07,0.0937 -0.011,0.0142 -0.024,0.0268 -0.035,0.041 z m 2021.60741,114.58203 0.46289,0.39454 c -0.10747,-0.0924 -0.22819,-0.18495 -0.33594,-0.27735 -0.0441,-0.0371 -0.0828,-0.0801 -0.12695,-0.11719 z m -2006.57621,222.87696 -0.1777,0.21289 c 0.035,-0.0414 0.063,-0.0875 0.098,-0.12891 0.025,-0.0297 0.055,-0.0542 0.08,-0.084 z"
         sodipodi:nodetypes="ssccccccscccccscsccccccccscsccccccccccccccccccscccccccccccccsccccscccccccccsccccsscccsscsssccccccscscccccscsccsccscccccccccscssccccccccccccccccccccccscc" />
      <text
         xml:space="preserve"
         id="text855"
         style="font-size:460.98px;line-height:1.25;font-family:'Fira Sans';-inkscape-font-specification:'Fira Sans';letter-spacing:0px;word-spacing:0px;white-space:pre;shape-inside:url(#rect857)" />
      <g
         transform="matrix(0.78616492,0,0,0.78616492,-502.43368,151.8086)"
         style="font-size:900.456px;line-height:1.25;font-family:'Fira Sans';-inkscape-font-specification:'Fira Sans';letter-spacing:-66.4964px;word-spacing:0px;fill:#003298;fill-opacity:1;stroke-width:22.5113"
         id="text946"
         aria-label="Sol daires">
        <path
           id="path1137"
           style="font-style:normal;font-variant:normal;font-weight:bold;font-stretch:normal;font-family:'Rockwell Condensed';-inkscape-font-specification:'Rockwell Condensed, Bold';fill:#003298;fill-opacity:1;stroke-width:22.5113"
           d="M -3520.536,588.76892 V 383.44033 h 94.5303 q 0,72.10683 15.3886,93.65094 15.3887,21.54412 40.4502,21.54412 22.4235,0 34.7344,-16.70768 12.7506,-16.70768 12.7506,-46.16596 0,-23.74249 -14.0696,-49.68336 -14.0697,-25.94087 -70.7878,-78.70197 -76.5036,-70.34812 -97.6081,-115.63473 -21.1044,-45.2866 -21.1044,-89.25418 0,-66.391042 36.9328,-108.5999169 36.9327,-42.6485501 93.6509,-42.6485501 28.1393,0 49.2437,8.793515 21.1044,8.35384 50.123,36.053414 v -39.57082 h 94.5303 V 147.33444 h -94.5303 q 0,-60.235582 -14.0696,-80.900344 -14.0696,-20.664761 -40.0105,-20.664761 -18.906,0 -30.3376,12.750597 -10.9919,12.750598 -10.9919,34.294711 0,26.380547 12.7506,46.165957 13.1903,19.78541 51.8817,52.76109 87.0558,74.74489 113.8761,124.86792 26.8202,50.12304 26.8202,107.28089 0,73.42586 -40.8899,121.79019 -40.4501,48.36434 -101.5651,48.36434 -53.6404,0 -97.1683,-44.84693 v 39.57082 z" />
        <path
           id="path1139"
           style="font-style:normal;font-variant:normal;font-weight:bold;font-stretch:normal;font-family:'Rockwell Condensed';-inkscape-font-specification:'Rockwell Condensed, Bold';fill:#003298;fill-opacity:1;stroke-width:22.5113"
           d="m -3008.8588,601.51952 q -81.7797,0 -134.1011,-65.07202 -52.3214,-65.51169 -52.3214,-168.39582 0,-102.44446 51.8817,-167.51647 51.8818,-65.51169 134.5408,-65.51169 80.9004,0 132.7821,65.51169 52.3214,65.07201 52.3214,167.51647 0,102.88413 -52.3214,168.39582 -51.8817,65.07202 -132.7821,65.07202 z m 0,-365.81025 q -26.3805,0 -38.2518,32.09633 -11.4315,32.09633 -11.4315,100.24608 0,68.14975 11.4315,100.24608 11.8713,32.09633 38.2518,32.09633 48.3644,0 48.3644,-132.34241 0,-132.34241 -48.3644,-132.34241 z" />
        <path
           id="path1141"
           style="font-style:normal;font-variant:normal;font-weight:bold;font-stretch:normal;font-family:'Rockwell Condensed';-inkscape-font-specification:'Rockwell Condensed, Bold';fill:#003298;fill-opacity:1;stroke-width:22.5113"
           d="m -2849.3619,588.76892 v -94.53029 h 49.2437 V 51.045444 h -49.2437 v -94.530292 h 180.7068 V 494.23863 h 43.5279 v 94.53029 z" />
        <path
           id="path1143"
           style="font-style:normal;font-variant:normal;font-weight:bold;font-stretch:normal;font-family:'Rockwell Condensed';-inkscape-font-specification:'Rockwell Condensed, Bold';fill:#003298;fill-opacity:1;stroke-width:22.5113"
           d="m -2025.6201,588.76892 h -174.5513 v -35.17406 q -35.6138,41.32952 -83.9781,41.32952 -61.1149,0 -94.5303,-61.55461 -32.9757,-61.55461 -32.9757,-176.74966 0,-112.557 36.4931,-164.43874 36.4931,-51.88174 90.1336,-51.88174 53.6404,0 83.0987,47.04531 h 1.7587 V 51.045444 h -42.2089 v -94.530292 h 173.6719 V 494.23863 h 43.0883 z M -2200.1714,426.52856 V 336.8347 q 0,-49.68336 -7.9142,-70.34812 -7.4745,-20.66477 -28.1392,-20.66477 -22.8632,0 -30.7773,25.06152 -7.9142,24.62185 -7.9142,97.16835 0,76.50359 6.5951,104.64284 7.0348,27.69957 31.217,27.69957 19.3457,0 28.1393,-16.70768 8.7935,-17.14736 8.7935,-57.15785 z" />
        <path
           id="path1145"
           style="font-style:normal;font-variant:normal;font-weight:bold;font-stretch:normal;font-family:'Rockwell Condensed';-inkscape-font-specification:'Rockwell Condensed, Bold';fill:#003298;fill-opacity:1;stroke-width:22.5113"
           d="m -1657.2772,588.76892 h -172.7926 v -34.29471 q -40.0104,40.45017 -91.0128,40.45017 -51.4421,0 -86.1765,-40.45017 -34.2947,-40.45017 -34.2947,-102.44446 0,-63.31331 37.3724,-105.08251 37.3725,-41.7692 94.97,-41.7692 40.0105,0 79.1416,26.82023 v -46.60564 q 0,-35.61373 -9.2331,-50.12303 -8.7936,-14.94898 -32.0964,-14.94898 -31.217,0 -43.0882,34.29471 l -118.2728,-24.18217 q 52.3214,-95.40964 177.629,-95.40964 72.9862,0 114.7554,33.85503 41.7692,33.85504 41.7692,99.36673 v 225.99335 h 41.3295 z m -172.7926,-113.43635 v -66.83072 q -16.7076,-20.66476 -37.8121,-20.66476 -19.3457,0 -30.7773,16.268 -11.4315,15.82833 -11.4315,42.20888 0,25.94087 10.5522,40.01049 10.9919,14.06963 29.8979,14.06963 23.3028,0 39.5708,-25.06152 z" />
        <path
           id="path1147"
           style="font-style:normal;font-variant:normal;font-weight:bold;font-stretch:normal;font-family:'Rockwell Condensed';-inkscape-font-specification:'Rockwell Condensed, Bold';fill:#003298;fill-opacity:1;stroke-width:22.5113"
           d="m -1481.9519,23.34587 q 0,31.656656 -22.4234,54.080121 -22.4235,22.423465 -54.0801,22.423465 -31.6567,0 -54.0802,-22.423465 -22.4234,-22.423465 -22.4234,-54.080121 0,-31.6566558 22.4234,-54.080121 22.4235,-22.423464 54.0802,-22.423464 31.2169,0 53.6404,22.423464 22.8631,22.4234652 22.8631,54.080121 z m -191.2589,565.42305 v -94.53029 h 47.9246 V 242.30441 h -47.9246 v -94.96997 h 179.3877 v 346.90419 h 42.2089 v 94.53029 z" />
        <path
           id="path1149"
           style="font-style:normal;font-variant:normal;font-weight:bold;font-stretch:normal;font-family:'Rockwell Condensed';-inkscape-font-specification:'Rockwell Condensed, Bold';fill:#003298;fill-opacity:1;stroke-width:22.5113"
           d="m -1472.3844,588.76892 v -94.53029 h 47.0453 V 242.30441 h -47.0453 v -94.96997 h 178.5083 v 88.37483 h 1.7587 q 8.7935,-36.05341 22.4235,-57.15785 13.6299,-21.54411 30.3376,-29.89795 17.1474,-8.35384 44.4073,-8.35384 v 147.73106 q -98.9271,0 -98.9271,130.5837 v 75.62424 h 52.3214 v 94.53029 z" />
        <path
           id="path1151"
           style="font-style:normal;font-variant:normal;font-weight:bold;font-stretch:normal;font-family:'Rockwell Condensed';-inkscape-font-specification:'Rockwell Condensed, Bold';fill:#003298;fill-opacity:1;stroke-width:22.5113"
           d="m -989.28614,451.1504 109.03959,40.45017 q -20.22508,52.7611 -61.99428,81.34002 -41.7692,28.57893 -96.72867,28.57893 -166.1974,0 -166.1974,-238.74395 0,-112.557 44.4072,-170.15453 44.8469,-57.59752 125.7473,-57.59752 70.34811,0 115.63471,54.08012 45.28661,54.08012 45.28661,157.40393 v 41.32952 h -200.93182 q 0,73.42586 8.3538,96.289 8.7935,22.86314 32.536,22.86314 20.2251,0 30.3377,-13.62995 10.1125,-14.06963 14.50926,-42.20888 z m -85.73676,-128.825 h 69.4688 v -21.54411 q 0,-75.62424 -34.2948,-75.62424 -20.225,0 -27.6995,23.30282 -7.4745,22.86314 -7.4745,73.86553 z" />
        <path
           id="path1153"
           style="font-style:normal;font-variant:normal;font-weight:bold;font-stretch:normal;font-family:'Rockwell Condensed';-inkscape-font-specification:'Rockwell Condensed, Bold';fill:#003298;fill-opacity:1;stroke-width:22.5113"
           d="M -885.62797,588.76892 V 469.17711 h 94.53029 q 3.95709,47.48498 37.81212,47.48498 13.19027,0 20.66476,-8.35384 7.91417,-8.35384 7.91417,-21.98379 0,-12.31092 -9.67287,-25.50119 -9.23319,-13.19027 -49.68336,-40.45017 -68.58943,-46.60563 -88.37484,-82.65905 -19.78541,-36.05341 -19.78541,-73.86553 0,-55.39915 28.13925,-89.25418 28.57893,-34.29471 74.74489,-34.29471 40.45017,0 69.02909,36.05341 h 2.19838 v -29.0186 h 94.53029 v 114.75538 h -94.53029 q -6.59513,-46.16596 -36.93276,-46.16596 -13.62995,0 -21.98379,8.79352 -7.91417,8.35384 -7.91417,21.98379 0,13.19027 10.11255,27.25989 10.11254,13.62995 51.88174,40.88985 34.29471,21.98379 56.2785,40.88985 21.98379,18.46638 37.81212,47.92466 15.82832,29.45828 15.82832,69.90845 0,55.39915 -28.13925,88.8145 -28.13925,33.41536 -74.3052,33.41536 -28.57893,0 -41.32953,-7.03481 -12.75059,-6.59514 -24.62184,-20.22508 -5.27611,-6.15547 -7.91416,-8.79352 h -1.75871 v 29.0186 z" />
      </g>
      <g
         transform="matrix(0.78616492,0,0,0.78616492,-480.43332,147.72546)"
         style="font-size:340.669px;line-height:1.25;font-family:'Fira Sans';-inkscape-font-specification:'Fira Sans';letter-spacing:5.76225px;word-spacing:0px;fill:#2274ba;fill-opacity:1;stroke-width:8.51671"
         id="text950"
         aria-label="nformatique">
        <path
           id="path1156"
           style="font-style:normal;font-variant:normal;font-weight:bold;font-stretch:normal;font-family:'Rockwell Condensed';-inkscape-font-specification:'Rockwell Condensed, Bold';fill:#2274ba;fill-opacity:1;stroke-width:8.51671"
           d="m -2394.3277,872.06824 v -35.76359 h 18.464 v -95.31414 h -18.464 v -35.92993 h 68.2004 v 17.79862 h 1.3307 q 11.145,-20.4601 36.0963,-20.4601 19.2957,0 31.106,14.47178 11.8103,14.30544 11.8103,39.42312 v 80.01065 h 16.8006 v 35.76359 h -66.5369 V 764.44478 q 0,-13.30739 -2.9942,-18.63034 -2.9942,-5.32295 -10.9786,-5.32295 -4.1585,0 -7.1527,1.49708 -2.9942,1.49708 -9.4815,6.48735 v 87.82873 h 14.3054 v 35.76359 z" />
        <path
           id="path1158"
           style="font-style:normal;font-variant:normal;font-weight:bold;font-stretch:normal;font-family:'Rockwell Condensed';-inkscape-font-specification:'Rockwell Condensed, Bold';fill:#2274ba;fill-opacity:1;stroke-width:8.51671"
           d="m -2202.9274,872.06824 v -35.76359 h 12.9747 v -95.31414 h -12.642 v -35.92993 h 12.642 v -14.30544 q 0,-29.1099 17.1332,-45.2451 17.1333,-16.30154 43.7481,-16.30154 15.3035,0 27.9455,6.321 12.642,6.15467 18.7967,17.13326 l -39.5895,18.13131 q -1.9961,-7.4854 -9.1488,-7.4854 -5.1566,0 -7.1528,3.82587 -1.9961,3.65953 -1.9961,12.14299 v 25.78305 h 18.2977 v 35.92993 h -18.2977 v 95.31414 h 18.9631 v 35.76359 z" />
        <path
           id="path1160"
           style="font-style:normal;font-variant:normal;font-weight:bold;font-stretch:normal;font-family:'Rockwell Condensed';-inkscape-font-specification:'Rockwell Condensed, Bold';fill:#2274ba;fill-opacity:1;stroke-width:8.51671"
           d="m -2026.1653,876.89216 q -30.9396,0 -50.7344,-24.61865 -19.7947,-24.78501 -19.7947,-63.7091 0,-38.75775 19.6284,-63.37641 19.6284,-24.785 50.9007,-24.785 30.607,0 50.2354,24.785 19.7947,24.61866 19.7947,63.37641 0,38.92409 -19.7947,63.7091 -19.6284,24.61865 -50.2354,24.61865 z m 0,-138.39678 q -9.9805,0 -14.4717,12.14299 -4.3249,12.14298 -4.3249,37.92604 0,25.78305 4.3249,37.92604 4.4912,12.14299 14.4717,12.14299 18.2977,0 18.2977,-50.06903 0,-50.06903 -18.2977,-50.06903 z" />
        <path
           id="path1162"
           style="font-style:normal;font-variant:normal;font-weight:bold;font-stretch:normal;font-family:'Rockwell Condensed';-inkscape-font-specification:'Rockwell Condensed, Bold';fill:#2274ba;fill-opacity:1;stroke-width:8.51671"
           d="m -1930.2455,872.06824 v -35.76359 h 17.7986 v -95.31414 h -17.7986 v -35.92993 h 67.5349 v 33.4348 h 0.6654 q 3.3268,-13.64007 8.4835,-21.6245 5.1566,-8.15077 11.4776,-11.31127 6.4873,-3.16051 16.8005,-3.16051 v 55.89101 q -37.427,0 -37.427,49.40366 v 28.61088 h 19.7948 v 35.76359 z" />
        <path
           id="path1164"
           style="font-style:normal;font-variant:normal;font-weight:bold;font-stretch:normal;font-family:'Rockwell Condensed';-inkscape-font-specification:'Rockwell Condensed, Bold';fill:#2274ba;fill-opacity:1;stroke-width:8.51671"
           d="m -1793.5719,872.06824 v -35.76359 h 16.8006 v -95.31414 h -16.8006 v -35.92993 h 66.5369 v 17.79862 h 0.998 q 16.4679,-20.4601 36.429,-20.4601 23.2879,0 36.0963,22.45621 12.642,-11.64396 22.7889,-16.96691 10.1469,-5.4893 21.4581,-5.4893 19.7948,0 31.6051,15.46984 11.9766,15.46983 11.9766,43.74802 v 74.68769 h 17.7986 v 35.76359 h -67.5349 v -104.6293 q 0,-14.30544 -3.3269,-20.62645 -3.3268,-6.321 -11.3113,-6.321 -7.9844,0 -16.3015,8.6498 v 87.16336 h 13.9728 v 35.76359 h -63.7091 v -104.6293 q 0,-14.47178 -3.3269,-20.62645 -3.3268,-6.321 -10.9786,-6.321 -8.8161,0 -16.6342,8.6498 v 87.16336 h 13.9727 v 35.76359 z" />
        <path
           id="path1166"
           style="font-style:normal;font-variant:normal;font-weight:bold;font-stretch:normal;font-family:'Rockwell Condensed';-inkscape-font-specification:'Rockwell Condensed, Bold';fill:#2274ba;fill-opacity:1;stroke-width:8.51671"
           d="m -1375.6135,872.06824 h -65.3725 v -12.9747 q -15.1371,15.30349 -34.4328,15.30349 -19.4621,0 -32.6031,-15.30349 -12.9747,-15.30349 -12.9747,-38.75775 0,-23.95329 14.1391,-39.75581 14.1391,-15.80252 35.9299,-15.80252 15.1372,0 29.9416,10.14688 v -17.63228 q 0,-13.47373 -3.4932,-18.96302 -3.3268,-5.65564 -12.1429,-5.65564 -11.8104,0 -16.3016,12.9747 l -44.7461,-9.14883 q 19.7948,-36.09627 67.2023,-36.09627 27.6128,0 43.4154,12.80835 15.8025,12.80836 15.8025,37.59336 v 85.49994 h 15.6361 z m -65.3725,-42.91631 V 803.8679 q -6.321,-7.81809 -14.3054,-7.81809 -7.3191,0 -11.644,6.15467 -4.3249,5.98832 -4.3249,15.96886 0,9.81419 3.9922,15.13714 4.1586,5.32296 11.3113,5.32296 8.8162,0 14.9708,-9.48151 z" />
        <path
           id="path1168"
           style="font-style:normal;font-variant:normal;font-weight:bold;font-stretch:normal;font-family:'Rockwell Condensed';-inkscape-font-specification:'Rockwell Condensed, Bold';fill:#2274ba;fill-opacity:1;stroke-width:8.51671"
           d="m -1268.8814,834.30854 v 37.09433 q -15.6362,5.48929 -30.2743,5.48929 -39.5895,0 -39.5895,-47.74023 v -88.16142 h -14.9708 v -35.92993 h 14.9708 v -20.95913 l 49.7363,-38.92409 v 59.88322 h 20.1275 v 35.92993 h -20.1275 v 74.52135 q 0,11.14493 2.8279,15.80252 2.8278,4.65758 9.8142,4.65758 3.4931,0 7.4854,-1.66342 z" />
        <path
           id="path1170"
           style="font-style:normal;font-variant:normal;font-weight:bold;font-stretch:normal;font-family:'Rockwell Condensed';-inkscape-font-specification:'Rockwell Condensed, Bold';fill:#2274ba;fill-opacity:1;stroke-width:8.51671"
           d="m -1169.8012,658.15205 q 0,11.97665 -8.4834,20.46011 -8.4835,8.48345 -20.4601,8.48345 -11.9767,0 -20.4601,-8.48345 -8.4835,-8.48346 -8.4835,-20.46011 0,-11.97664 8.4835,-20.4601 8.4834,-8.48345 20.4601,-8.48345 11.8103,0 20.2937,8.48345 8.6498,8.48346 8.6498,20.4601 z m -72.3589,213.91619 v -35.76359 h 18.1313 v -95.31414 h -18.1313 v -35.92993 h 67.8677 v 131.24407 h 15.9688 v 35.76359 z" />
        <path
           id="path1172"
           style="font-style:normal;font-variant:normal;font-weight:bold;font-stretch:normal;font-family:'Rockwell Condensed';-inkscape-font-specification:'Rockwell Condensed, Bold';fill:#2274ba;fill-opacity:1;stroke-width:8.51671"
           d="m -987.05064,948.41935 h -88.82676 v -35.76359 h 22.7889 v -53.56222 q -13.9728,15.63617 -31.4387,15.63617 -22.9553,0 -35.4309,-22.28986 -12.4757,-22.45621 -12.4757,-64.54081 0,-41.58557 12.4757,-63.54275 12.4756,-21.95719 35.7636,-21.95719 22.7889,0 30.4406,21.79084 h 0.6654 v -19.12936 h 66.03786 v 35.92993 h -16.30156 v 171.66525 h 16.30156 z m -66.03786,-140.39289 v -36.09628 q 0,-29.60893 -13.6401,-29.60893 -8.1508,0 -11.1449,10.31322 -2.8278,10.31323 -2.8278,34.93188 0,28.61088 1.9961,40.0885 2.1624,11.31127 11.6439,11.31127 7.6518,0 10.8123,-7.15272 3.1605,-7.15271 3.1605,-23.78694 z" />
        <path
           id="path1174"
           style="font-style:normal;font-variant:normal;font-weight:bold;font-stretch:normal;font-family:'Rockwell Condensed';-inkscape-font-specification:'Rockwell Condensed, Bold';fill:#2274ba;fill-opacity:1;stroke-width:8.51671"
           d="m -822.09888,705.06058 v 131.24407 h 18.29765 v 35.76359 h -68.034 v -13.30739 q -19.12936,15.96886 -37.59336,15.96886 -19.2957,0 -31.106,-14.30543 -11.81031,-14.30544 -11.81031,-39.42313 v -80.01064 h -16.63422 v -35.92993 h 66.37057 v 107.7898 q 0,13.30739 2.99416,18.63034 3.1605,5.15661 10.97859,5.15661 4.3249,0 7.15272,-1.33074 2.99416,-1.49708 9.64785,-6.48735 v -87.82873 h -14.30543 v -35.92993 z" />
        <path
           id="path1176"
           style="font-style:normal;font-variant:normal;font-weight:bold;font-stretch:normal;font-family:'Rockwell Condensed';-inkscape-font-specification:'Rockwell Condensed, Bold';fill:#2274ba;fill-opacity:1;stroke-width:8.51671"
           d="m -699.23162,820.0031 41.25288,15.30349 q -7.65174,19.96108 -23.45426,30.77332 -15.80252,10.81225 -36.5953,10.81225 -62.87739,0 -62.87739,-90.32386 0,-42.58362 16.80057,-64.37446 16.96692,-21.79084 47.5739,-21.79084 26.61477,0 43.74802,20.4601 17.13326,20.4601 17.13326,59.55054 v 15.63617 h -76.01843 q 0,27.77916 3.1605,36.42896 3.32685,8.6498 12.30933,8.6498 7.65175,0 11.47762,-5.15661 3.82587,-5.32295 5.4893,-15.96886 z m -32.43675,-48.73829 h 26.28208 v -8.15077 q 0,-28.61088 -12.9747,-28.61088 -7.65174,0 -10.47956,8.81615 -2.82782,8.6498 -2.82782,27.9455 z" />
      </g>
      <g
         transform="matrix(0.78616492,0,0,0.78616492,-3251.9468,-1643.9953)"
         aria-label="i"
         id="g954"
         style="font-size:945.003px;line-height:1.25;font-family:'Fira Sans';-inkscape-font-specification:'Fira Sans';letter-spacing:15.9843px;word-spacing:0px;fill:#2274ba;fill-opacity:1;stroke-width:23.6251">
        <path
           d="m 1062.5947,2284.0747 c 0,22.1485 -7.8443,41.067 -23.5328,56.7555 -15.6885,15.6885 -34.6071,23.5328 -56.75558,23.5328 -22.14851,0 -41.06702,-7.8443 -56.75555,-23.5328 -15.68853,-15.6885 -23.53279,-34.607 -23.53279,-56.7555 0,-22.1486 7.84426,-41.0671 23.53279,-56.7556 15.68853,-15.6885 34.60704,-23.5327 56.75555,-23.5327 21.84088,0 40.60558,7.8442 56.29408,23.5327 15.9962,15.6885 23.9943,34.607 23.9943,56.7556 z m -200.72089,866.0222 v -99.2068 h 50.29557 v -537.0246 h -50.29557 v -99.6683 h 188.26229 v 636.6929 h 44.297 v 99.2068 z"
           style="font-style:normal;font-variant:normal;font-weight:bold;font-stretch:normal;font-family:'Rockwell Condensed';-inkscape-font-specification:'Rockwell Condensed, Bold';fill:#2274ba;fill-opacity:1;stroke-width:23.6251"
           id="path952"
           sodipodi:nodetypes="ssssssscsccccccccccc" />
      </g>
    </g>
  </g>
</svg>
